<svg width="236" height="296" viewBox="0 0 236 296" fill="none" xmlns="http://www.w3.org/2000/svg">
<path d="M107.096 107.48V143H97.688V107.48H107.096ZM117.206 113.576C115.542 113.576 114.198 113.128 113.174 112.232C112.182 111.304 111.686 110.152 111.686 108.776C111.686 107.368 112.182 106.2 113.174 105.272C114.198 104.344 115.542 103.88 117.206 103.88C118.838 103.88 120.15 104.344 121.142 105.272C122.166 106.2 122.678 107.368 122.678 108.776C122.678 110.152 122.166 111.304 121.142 112.232C120.15 113.128 118.838 113.576 117.206 113.576ZM121.862 116.072V143H112.454V116.072H121.862ZM125.683 129.512C125.683 126.728 126.259 124.296 127.411 122.216C128.563 120.136 130.163 118.536 132.211 117.416C134.291 116.296 136.659 115.736 139.315 115.736C142.739 115.736 145.619 116.68 147.955 118.568C150.291 120.424 151.795 123.032 152.467 126.392H142.483C141.907 124.632 140.787 123.752 139.123 123.752C137.939 123.752 136.995 124.248 136.291 125.24C135.619 126.2 135.283 127.624 135.283 129.512C135.283 131.4 135.619 132.84 136.291 133.832C136.995 134.824 137.939 135.32 139.123 135.32C140.819 135.32 141.939 134.44 142.483 132.68H152.467C151.795 136.008 150.291 138.616 147.955 140.504C145.619 142.392 142.739 143.336 139.315 143.336C136.659 143.336 134.291 142.776 132.211 141.656C130.163 140.536 128.563 138.936 127.411 136.856C126.259 134.776 125.683 132.328 125.683 129.512ZM173.224 143L165.784 131.96V143H156.376V107.48H165.784V126.632L173.224 116.072H184.504L173.896 129.608L184.696 143H173.224ZM213.182 129.224C213.182 129.96 213.134 130.696 213.038 131.432H195.23C195.326 132.904 195.726 134.008 196.43 134.744C197.166 135.448 198.094 135.8 199.214 135.8C200.782 135.8 201.902 135.096 202.574 133.688H212.606C212.19 135.544 211.374 137.208 210.158 138.68C208.974 140.12 207.47 141.256 205.646 142.088C203.822 142.92 201.806 143.336 199.598 143.336C196.942 143.336 194.574 142.776 192.494 141.656C190.446 140.536 188.83 138.936 187.646 136.856C186.494 134.776 185.918 132.328 185.918 129.512C185.918 126.696 186.494 124.264 187.646 122.216C188.798 120.136 190.398 118.536 192.446 117.416C194.526 116.296 196.91 115.736 199.598 115.736C202.254 115.736 204.606 116.28 206.654 117.368C208.702 118.456 210.302 120.024 211.454 122.072C212.606 124.088 213.182 126.472 213.182 129.224ZM203.582 126.872C203.582 125.72 203.198 124.824 202.43 124.184C201.662 123.512 200.702 123.176 199.55 123.176C198.398 123.176 197.454 123.496 196.718 124.136C195.982 124.744 195.502 125.656 195.278 126.872H203.582ZM226.44 120.824C227.496 119.288 228.776 118.072 230.28 117.176C231.784 116.28 233.4 115.832 235.128 115.832V125.864H232.488C230.44 125.864 228.92 126.264 227.928 127.064C226.936 127.864 226.44 129.256 226.44 131.24V143H217.032V116.072H226.44V120.824Z" fill="black"/>
<path d="M8.25 127C8.25 109.667 12 94.25 19.5 80.75C27 67.0833 37.4167 56.5 50.75 49C64.25 41.3333 79.5 37.5 96.5 37.5C117.333 37.5 135.167 43 150 54C164.833 65 174.75 80 179.75 99H132.75C129.25 91.6667 124.25 86.0833 117.75 82.25C111.417 78.4167 104.167 76.5 96 76.5C82.8333 76.5 72.1667 81.0833 64 90.25C55.8333 99.4167 51.75 111.667 51.75 127C51.75 142.333 55.8333 154.583 64 163.75C72.1667 172.917 82.8333 177.5 96 177.5C104.167 177.5 111.417 175.583 117.75 171.75C124.25 167.917 129.25 162.333 132.75 155H179.75C174.75 174 164.833 189 150 200C135.167 210.833 117.333 216.25 96.5 216.25C79.5 216.25 64.25 212.5 50.75 205C37.4167 197.333 27 186.75 19.5 173.25C12 159.75 8.25 144.333 8.25 127Z" fill="black"/>
</svg>
